<?xml version="1.0" standalone="no"?><!DOCTYPE svg PUBLIC "-//W3C//DTD SVG 1.1//EN" "http://www.w3.org/Graphics/SVG/1.1/DTD/svg11.dtd"><svg t="1660233086541" class="icon" viewBox="0 0 1024 1024" version="1.1" xmlns="http://www.w3.org/2000/svg" p-id="1116" xmlns:xlink="http://www.w3.org/1999/xlink" width="200" height="200"><defs><style type="text/css">@font-face { font-family: feedback-iconfont; src: url("//at.alicdn.com/t/font_1031158_u69w8yhxdu.woff2?t=1630033759944") format("woff2"), url("//at.alicdn.com/t/font_1031158_u69w8yhxdu.woff?t=1630033759944") format("woff"), url("//at.alicdn.com/t/font_1031158_u69w8yhxdu.ttf?t=1630033759944") format("truetype"); }
</style></defs><path d="M768 64a128 128 0 0 1 128 128v640a128 128 0 0 1-128 128H256a128 128 0 0 1-128-128V192a128 128 0 0 1 128-128h512zM512 448a192 192 0 1 0 111.232 348.48l71.424 71.424a32 32 0 0 0 45.248-45.248l-71.424-71.424A192 192 0 0 0 512 448z m0 64a128 128 0 1 1 0 256 128 128 0 0 1 0-256z m-32-256h-192a32 32 0 0 0-5.76 63.488L288 320h192a32 32 0 0 0 0-64z" fill="#f4e000" p-id="1117"></path></svg>