<?xml version="1.0" standalone="no"?><!DOCTYPE svg PUBLIC "-//W3C//DTD SVG 1.1//EN" "http://www.w3.org/Graphics/SVG/1.1/DTD/svg11.dtd"><svg t="1660233059301" class="icon" viewBox="0 0 1024 1024" version="1.1" xmlns="http://www.w3.org/2000/svg" p-id="726" xmlns:xlink="http://www.w3.org/1999/xlink" width="200" height="200"><defs><style type="text/css">@font-face { font-family: feedback-iconfont; src: url("//at.alicdn.com/t/font_1031158_u69w8yhxdu.woff2?t=1630033759944") format("woff2"), url("//at.alicdn.com/t/font_1031158_u69w8yhxdu.woff?t=1630033759944") format("woff"), url("//at.alicdn.com/t/font_1031158_u69w8yhxdu.ttf?t=1630033759944") format("truetype"); }
</style></defs><path d="M444.38 309.92m-178.3 0a178.3 178.3 0 1 0 356.6 0 178.3 178.3 0 1 0-356.6 0Z" fill="#8C9EFF" p-id="727"></path><path d="M768.3 892.38c36.82 0 63.81-29.33 54.68-59.43-47.92-157.99-199.23-273.41-378.6-273.41-179.36 0-330.67 115.42-378.6 273.41-9.13 30.1 17.86 59.43 54.68 59.43H768.3z" fill="#8C9EFF" p-id="728"></path><path d="M939.48 490.25H722.12c-11.33 0-20.52-9.18-20.52-20.52 0-11.33 9.18-20.52 20.52-20.52h217.36c11.33 0 20.52 9.18 20.52 20.52 0 11.33-9.18 20.52-20.52 20.52z" fill="#FFD600" p-id="729"></path><path d="M830.8 598.93c-11.33 0-20.52-9.18-20.52-20.52V361.05c0-11.33 9.18-20.52 20.52-20.52s20.52 9.18 20.52 20.52v217.36c0 11.33-9.18 20.52-20.52 20.52z" fill="#FFD600" p-id="730"></path></svg>